<?xml version="1.0" encoding="utf-8"?>
<!-- Generator: Adobe Illustrator 21.1.0, SVG Export Plug-In . SVG Version: 6.00 Build 0)  -->
<svg version="1.1" id="Layer_1" xmlns="http://www.w3.org/2000/svg" xmlns:xlink="http://www.w3.org/1999/xlink" x="0px" y="0px"
	 viewBox="0 0 100 100" style="enable-background:new 0 0 100 100;" xml:space="preserve">
<path d="M50.1,91.1c-0.1,0-0.2,0-0.2,0c-4.9-0.3-16.6-9.3-25.2-18C17.3,65.8,5,51.5,5,38.4c0-14.6,11.9-26.5,26.5-26.5
	c6.9,0,13.5,2.7,18.5,7.6c5-4.9,11.5-7.6,18.5-7.6C82.8,11.9,95,24.3,95,39c0,15-19.2,33.7-25.1,39C66.5,81.2,55.2,91.1,50.1,91.1z
	 M50.1,85.5L50.1,85.5L50.1,85.5z M31.5,17.5c-11.5,0-20.9,9.4-20.9,20.9c0,8,6.4,19.2,17.7,30.5C38.4,79.1,48,85.2,50.1,85.5
	c2.1-0.4,11.5-6.7,21.7-17.1C83,56.9,89.4,46.2,89.4,39c0-11.7-9.6-21.5-20.9-21.5c-6.3,0-12.2,2.9-16.3,7.9
	c-0.5,0.7-1.3,1.1-2.2,1.1s-1.7-0.4-2.2-1.1C43.8,20.4,37.8,17.5,31.5,17.5z"/>
</svg>
